<svg xmlns="http://www.w3.org/2000/svg" viewBox="0 0 1200 500" role="img" aria-label="Mahakal inspired artwork">
  <defs>
    <linearGradient id="sky" x1="0" y1="0" x2="0" y2="1">
      <stop offset="0%" stop-color="#fff8e1"/>
      <stop offset="100%" stop-color="#ffe0b2"/>
    </linearGradient>
    <linearGradient id="temple" x1="0" y1="0" x2="1" y2="1">
      <stop offset="0%" stop-color="#ffb74d"/>
      <stop offset="100%" stop-color="#ef6c00"/>
    </linearGradient>
  </defs>
  <rect width="1200" height="500" fill="url(#sky)"/>
  <circle cx="980" cy="110" r="58" fill="#fff3cd"/>
  <g opacity="0.18" fill="#ef6c00">
    <circle cx="200" cy="120" r="80"/>
    <circle cx="320" cy="150" r="55"/>
    <circle cx="760" cy="170" r="90"/>
  </g>
  <g transform="translate(110,120)">
    <rect x="0" y="250" width="980" height="120" fill="#ffffff"/>
    <rect x="80" y="120" width="820" height="150" fill="url(#temple)"/>
    <polygon points="120,120 490,0 860,120" fill="#fb8c00"/>
    <rect x="450" y="150" width="80" height="220" fill="#6d4c41"/>
    <rect x="300" y="180" width="80" height="90" fill="#6d4c41"/>
    <rect x="610" y="180" width="80" height="90" fill="#6d4c41"/>
    <rect x="180" y="190" width="70" height="80" fill="#6d4c41"/>
    <rect x="740" y="190" width="70" height="80" fill="#6d4c41"/>
    <polygon points="490,0 530,-80 570,0" fill="#ef6c00"/>
    <path d="M530 -78 L530 -150" stroke="#5d4037" stroke-width="8"/>
    <path d="M530 -150 L505 -120 M530 -150 L555 -120" stroke="#5d4037" stroke-width="8"/>
  </g>
  <text x="60" y="62" font-size="40" font-family="Noto Sans Devanagari, Segoe UI, Arial" fill="#bf360c">ॐ नमः शिवाय</text>
  <text x="60" y="105" font-size="22" font-family="Segoe UI, Arial" fill="#6d4c41">Ujjain Mahakal Inspired Command Center Visual</text>
</svg>
